<?xml version="1.0" encoding="UTF-8"?>
<!DOCTYPE svg PUBLIC "-//W3C//DTD SVG 1.1//EN" "http://www.w3.org/Graphics/SVG/1.1/DTD/svg11.dtd">
<svg xmlns="http://www.w3.org/2000/svg" version="1.1" width="64px" height="64px" style="shape-rendering:geometricPrecision; text-rendering:geometricPrecision; image-rendering:optimizeQuality; fill-rule:evenodd; clip-rule:evenodd" xmlns:xlink="http://www.w3.org/1999/xlink">
<g><path style="opacity:0.976" fill="#f6c013" d="M 54.5,24.5 C 52.5,24.5 50.5,24.5 48.5,24.5C 48.7564,22.2075 48.4231,20.0408 47.5,18C 34.1542,17.1673 20.8208,17.334 7.5,18.5C 6.75731,19.1818 6.09065,19.8485 5.5,20.5C 4.50929,26.979 4.17596,33.6457 4.5,40.5C 3.79616,45.2897 2.12949,49.623 -0.5,53.5C -0.5,38.5 -0.5,23.5 -0.5,8.5C 6.41974,7.37215 13.4197,7.20548 20.5,8C 22.8333,9.66667 25.1667,11.3333 27.5,13C 35.5,13.3333 43.5,13.6667 51.5,14C 52.6667,14.5 53.5,15.3333 54,16.5C 54.4974,19.146 54.6641,21.8127 54.5,24.5 Z"/></g>
<g><path style="opacity:1" fill="#ffebc7" d="M 48.5,24.5 C 47.5,24.5 46.5,24.5 45.5,24.5C 45.5,23.1667 45.5,21.8333 45.5,20.5C 32.1667,20.5 18.8333,20.5 5.5,20.5C 6.09065,19.8485 6.75731,19.1818 7.5,18.5C 20.8208,17.334 34.1542,17.1673 47.5,18C 48.4231,20.0408 48.7564,22.2075 48.5,24.5 Z"/></g>
<g><path style="opacity:1" fill="#fef6e5" d="M 5.5,20.5 C 18.8333,20.5 32.1667,20.5 45.5,20.5C 45.5,21.8333 45.5,23.1667 45.5,24.5C 34.1618,24.3335 22.8284,24.5001 11.5,25C 9.14635,28.8948 7.47968,33.0614 6.5,37.5C 5.51114,32.0247 5.1778,26.358 5.5,20.5 Z"/></g>
<g><path style="opacity:1" fill="#fce9b0" d="M 5.5,20.5 C 5.1778,26.358 5.51114,32.0247 6.5,37.5C 6.06795,38.7095 5.40128,39.7095 4.5,40.5C 4.17596,33.6457 4.50929,26.979 5.5,20.5 Z"/></g>
<g><path style="opacity:0.994" fill="#fbd77b" d="M 45.5,24.5 C 46.5,24.5 47.5,24.5 48.5,24.5C 50.5,24.5 52.5,24.5 54.5,24.5C 57.6085,24.2641 60.6085,24.5975 63.5,25.5C 63.5,27.5 63.5,29.5 63.5,31.5C 60.4712,39.4065 57.1379,47.2398 53.5,55C 35.5031,55.4999 17.5031,55.6666 -0.5,55.5C -0.5,54.8333 -0.5,54.1667 -0.5,53.5C 2.12949,49.623 3.79616,45.2897 4.5,40.5C 5.40128,39.7095 6.06795,38.7095 6.5,37.5C 7.47968,33.0614 9.14635,28.8948 11.5,25C 22.8284,24.5001 34.1618,24.3335 45.5,24.5 Z"/></g>
</svg>
