<?xml version="1.0" encoding="UTF-8"?>
<!DOCTYPE svg PUBLIC "-//W3C//DTD SVG 1.1//EN" "http://www.w3.org/Graphics/SVG/1.1/DTD/svg11.dtd">
<svg xmlns="http://www.w3.org/2000/svg" version="1.1" width="64px" height="64px" style="shape-rendering:geometricPrecision; text-rendering:geometricPrecision; image-rendering:optimizeQuality; fill-rule:evenodd; clip-rule:evenodd" xmlns:xlink="http://www.w3.org/1999/xlink">
<g><path style="opacity:0.929" fill="#e58c0f" d="M 62.5,20.5 C 61.1805,19.0582 59.5138,18.3915 57.5,18.5C 57.7035,16.6096 57.0368,15.1096 55.5,14C 39.5,13.3333 23.5,13.3333 7.5,14C 5.96317,15.1096 5.2965,16.6096 5.5,18.5C 3.4862,18.3915 1.81953,19.0582 0.5,20.5C 0.333983,15.1563 0.500649,9.82294 1,4.5C 8.08623,3.35441 15.2529,3.18775 22.5,4C 23.8782,5.71337 25.5448,7.0467 27.5,8C 38.8333,8.33333 50.1667,8.66667 61.5,9C 62.4601,12.73 62.7935,16.5633 62.5,20.5 Z"/></g>
<g><path style="opacity:1" fill="#fefdfc" d="M 57.5,18.5 C 40.1667,18.5 22.8333,18.5 5.5,18.5C 5.2965,16.6096 5.96317,15.1096 7.5,14C 23.5,13.3333 39.5,13.3333 55.5,14C 57.0368,15.1096 57.7035,16.6096 57.5,18.5 Z"/></g>
<g><path style="opacity:0.99" fill="#feb90c" d="M 5.5,18.5 C 22.8333,18.5 40.1667,18.5 57.5,18.5C 59.5138,18.3915 61.1805,19.0582 62.5,20.5C 62.6666,33.1711 62.4999,45.8377 62,58.5C 51.9078,59.1609 41.7411,59.4942 31.5,59.5C 21.2589,59.4942 11.0922,59.1609 1,58.5C 0.500115,45.8377 0.333449,33.1711 0.5,20.5C 1.81953,19.0582 3.4862,18.3915 5.5,18.5 Z"/></g>
</svg>
