<?xml version="1.0" encoding="UTF-8"?>
<!DOCTYPE svg PUBLIC "-//W3C//DTD SVG 1.1//EN" "http://www.w3.org/Graphics/SVG/1.1/DTD/svg11.dtd">
<svg xmlns="http://www.w3.org/2000/svg" version="1.1" width="128px" height="128px" style="shape-rendering:geometricPrecision; text-rendering:geometricPrecision; image-rendering:optimizeQuality; fill-rule:evenodd; clip-rule:evenodd" xmlns:xlink="http://www.w3.org/1999/xlink">
<g><path style="opacity:0.993" fill="#2196f3" d="M 51.5,-0.5 C 59.5,-0.5 67.5,-0.5 75.5,-0.5C 103.167,6.5 120.5,23.8333 127.5,51.5C 127.5,59.5 127.5,67.5 127.5,75.5C 120.385,103.615 102.718,120.949 74.5,127.5C 67.1667,127.5 59.8333,127.5 52.5,127.5C 24.2818,120.949 6.61511,103.615 -0.5,75.5C -0.5,67.5 -0.5,59.5 -0.5,51.5C 6.5,23.8333 23.8333,6.5 51.5,-0.5 Z"/></g>
<g><path style="opacity:1" fill="#f9f9f9" d="M 68.5,34.5 C 68.5,42.5 68.5,50.5 68.5,58.5C 76.5,58.5 84.5,58.5 92.5,58.5C 96.254,59.8276 97.4207,62.4942 96,66.5C 95.1841,67.8228 94.0174,68.4894 92.5,68.5C 84.5,68.5 76.5,68.5 68.5,68.5C 68.5,76.5 68.5,84.5 68.5,92.5C 67.1724,96.254 64.5058,97.4207 60.5,96C 59.1772,95.1841 58.5106,94.0174 58.5,92.5C 58.5,84.5 58.5,76.5 58.5,68.5C 50.5,68.5 42.5,68.5 34.5,68.5C 30.746,67.1724 29.5793,64.5058 31,60.5C 31.8159,59.1772 32.9826,58.5106 34.5,58.5C 42.5,58.5 50.5,58.5 58.5,58.5C 58.5,50.5 58.5,42.5 58.5,34.5C 59.8276,30.746 62.4942,29.5793 66.5,31C 67.8228,31.8159 68.4894,32.9826 68.5,34.5 Z"/></g>
<g><path style="opacity:1" fill="#69b7f5" d="M 58.5,34.5 C 58.5,42.5 58.5,50.5 58.5,58.5C 50.5,58.5 42.5,58.5 34.5,58.5C 41.9818,57.508 49.6484,57.1746 57.5,57.5C 57.1746,49.6484 57.508,41.9818 58.5,34.5 Z"/></g>
<g><path style="opacity:1" fill="#6ab7f5" d="M 68.5,34.5 C 69.492,41.9818 69.8254,49.6484 69.5,57.5C 77.3516,57.1746 85.0182,57.508 92.5,58.5C 84.5,58.5 76.5,58.5 68.5,58.5C 68.5,50.5 68.5,42.5 68.5,34.5 Z"/></g>
<g><path style="opacity:1" fill="#6ab7f5" d="M 34.5,68.5 C 42.5,68.5 50.5,68.5 58.5,68.5C 58.5,76.5 58.5,84.5 58.5,92.5C 57.508,85.0182 57.1746,77.3516 57.5,69.5C 49.6484,69.8254 41.9818,69.492 34.5,68.5 Z"/></g>
<g><path style="opacity:1" fill="#69b7f5" d="M 92.5,68.5 C 85.0182,69.492 77.3516,69.8254 69.5,69.5C 69.8254,77.3516 69.492,85.0182 68.5,92.5C 68.5,84.5 68.5,76.5 68.5,68.5C 76.5,68.5 84.5,68.5 92.5,68.5 Z"/></g>
</svg>
